<svg xmlns="http://www.w3.org/2000/svg" xmlns:xlink="http://www.w3.org/1999/xlink" width="300" zoomAndPan="magnify" viewBox="0 0 224.87999 225" height="300" preserveAspectRatio="xMidYMid meet" version="1.0"><defs><clipPath id="60bceb76ca"><path d="M 0 0.0585938 L 224.761719 0.0585938 L 224.761719 224.9375 L 0 224.9375 Z M 0 0.0585938 " clip-rule="nonzero"/></clipPath></defs><g clip-path="url(#60bceb76ca)"><path fill="#48d893" d="M 112.28125 0.0585938 C 51.050781 0.0585938 0.140625 50.550781 0.121094 111.304688 C 0.0976562 174.730469 49.738281 224.9375 112.480469 224.941406 C 174.359375 224.945312 224.664062 174.605469 224.738281 112.617188 C 224.808594 50.679688 174.234375 0.0625 112.28125 0.0585938 Z M 202.78125 100.625 C 202.738281 100.429688 202.71875 100.226562 202.679688 100.027344 C 202.363281 98.472656 200.996094 96.203125 201.929688 95.542969 C 203.28125 94.585938 205.125 96.347656 206.769531 96.90625 C 207.902344 97.292969 208.90625 98.042969 210.023438 98.5 C 211.632812 99.160156 212.652344 100.066406 211.878906 101.832031 C 211.566406 109.648438 210.765625 117.277344 209.046875 124.78125 C 208.890625 125.46875 208.550781 126.140625 208.523438 126.824219 C 208.480469 128.078125 207.535156 128.453125 206.710938 128.429688 C 205.46875 128.398438 205.949219 127.1875 205.945312 126.519531 C 205.910156 117.757812 204.613281 109.160156 202.78125 100.625 Z M 60.191406 190.902344 C 60.316406 190.632812 60.441406 190.367188 60.566406 190.101562 C 65.496094 190.792969 70.425781 191.484375 76.160156 192.289062 C 72.378906 193.5 69.386719 194.925781 66.261719 195.328125 C 63.164062 195.722656 62.230469 192.402344 60.191406 190.902344 Z M 64.386719 201.578125 C 66.15625 204.382812 68.089844 207.082031 70.363281 210.4375 C 65.664062 208.613281 61.941406 206.621094 58.214844 204.628906 C 56.773438 203.859375 56.945312 203.019531 57.878906 202.019531 C 58.292969 201.578125 58.707031 201.128906 59.164062 200.738281 C 62.175781 198.164062 62.269531 198.230469 64.386719 201.578125 Z M 60.996094 188.746094 C 59.714844 188.503906 59.136719 187.820312 58.726562 186.667969 C 55.445312 177.460938 53.429688 167.972656 52.363281 158.273438 C 52.019531 155.148438 51.933594 151.996094 51.613281 148.867188 C 51.4375 147.171875 51.828125 146.300781 53.71875 146.027344 C 58.117188 145.394531 62.519531 144.675781 66.847656 143.691406 C 69.101562 143.179688 69.65625 144.277344 70.03125 145.96875 C 71.515625 152.660156 73.507812 159.203125 75.722656 165.671875 C 78.246094 173.03125 81.117188 180.25 84.644531 187.199219 C 86.363281 190.585938 86.3125 190.609375 82.648438 191.300781 C 82.148438 191.394531 81.652344 191.476562 81.265625 191.542969 C 74.417969 190.699219 67.667969 190.011719 60.996094 188.746094 Z M 18.796875 98.589844 C 18.996094 103.96875 19.203125 109.347656 20.203125 114.652344 C 21.03125 119.03125 21.910156 123.398438 22.722656 127.777344 C 22.84375 128.429688 23.597656 129.152344 22.925781 129.746094 C 22.328125 130.277344 21.640625 129.75 20.996094 129.457031 C 18.976562 128.539062 16.949219 127.636719 14.890625 126.816406 C 13.109375 126.105469 12.355469 124.90625 12.820312 123.007812 C 13.335938 115.0625 14.175781 107.144531 15.921875 99.347656 C 16.007812 98.960938 16.265625 98.609375 16.359375 98.222656 C 16.578125 97.304688 17.128906 96.707031 18.0625 96.847656 C 19.058594 96.996094 18.769531 97.953125 18.796875 98.589844 Z M 20.058594 89.28125 C 19.835938 83.320312 23.128906 77.976562 25.570312 72.363281 C 26.023438 71.328125 26.65625 71.171875 27.734375 71.699219 C 36.691406 76.082031 46.226562 78.65625 55.945312 80.679688 C 56.683594 80.835938 58.269531 80.402344 58.039062 82.148438 C 57.867188 83.464844 57.738281 84.585938 55.914062 84.914062 C 47.105469 86.5 38.289062 88.085938 29.742188 90.84375 C 27.441406 91.585938 25.042969 92.128906 22.886719 93.164062 C 20.144531 94.484375 19.808594 93.285156 20.054688 90.996094 C 20.097656 90.59375 20.058594 90.183594 20.058594 89.28125 Z M 164.414062 35.117188 C 159.421875 34.390625 154.582031 33.6875 149.746094 32.980469 C 149.753906 32.816406 149.761719 32.652344 149.773438 32.488281 C 152.441406 31.628906 155.101562 30.742188 157.78125 29.917969 C 159.960938 29.246094 162.699219 31.347656 164.414062 35.117188 Z M 160.214844 23.308594 C 158.507812 20.621094 156.660156 18.027344 154.511719 14.851562 C 159.277344 16.539062 163.144531 18.644531 166.976562 20.820312 C 167.910156 21.351562 167.820312 22.089844 167.125 22.816406 C 166.777344 23.183594 166.460938 23.585938 166.097656 23.9375 C 162.917969 27.027344 162.527344 26.949219 160.214844 23.308594 Z M 163.519531 36.351562 C 164.964844 36.597656 165.5625 37.238281 166.023438 38.511719 C 169.453125 47.988281 171.445312 57.773438 172.496094 67.769531 C 172.804688 70.6875 172.886719 73.632812 173.1875 76.554688 C 173.34375 78.054688 172.816406 78.84375 171.363281 79.101562 C 166.585938 79.945312 161.800781 80.746094 157.042969 81.683594 C 155.078125 82.070312 155.105469 80.527344 154.871094 79.53125 C 153.257812 72.675781 151.253906 65.929688 148.96875 59.273438 C 146.445312 51.933594 143.566406 44.734375 140.042969 37.804688 C 138.285156 34.351562 138.398438 34.207031 142.148438 33.964844 C 143.054688 33.90625 143.96875 33.882812 144.828125 33.84375 C 151.132812 34.421875 157.335938 35.296875 163.519531 36.351562 Z M 189.207031 74.125 C 185.25 75.351562 181.277344 76.519531 177.316406 77.726562 C 174.898438 78.460938 174.492188 77.519531 174.394531 75.554688 C 173.949219 66.519531 172.664062 57.601562 170.46875 48.828125 C 169.566406 45.226562 168.425781 41.679688 167.398438 38.109375 C 171.625 41.203125 174.710938 45.191406 177.75 49.21875 C 182.769531 55.875 186.96875 63.039062 190.8125 70.433594 C 191.964844 72.648438 191.496094 73.417969 189.207031 74.125 Z M 193.078125 75.390625 C 195.339844 80.761719 197.585938 86.128906 199.183594 92.363281 C 191.195312 89.894531 183.78125 87.761719 176.132812 86.597656 C 175.46875 86.496094 175.074219 86.160156 174.839844 85.515625 C 173.597656 82.121094 174.929688 79.523438 178.46875 78.65625 C 182.59375 77.648438 186.628906 76.378906 190.597656 74.890625 C 191.503906 74.550781 192.464844 73.925781 193.078125 75.390625 Z M 173.347656 95.066406 C 172.570312 109.277344 170.421875 123.246094 166.984375 137.035156 C 166.429688 139.257812 164.816406 139.675781 163.160156 139.566406 C 161.351562 139.445312 162.035156 137.664062 162.035156 136.621094 C 162.066406 120.089844 160.109375 103.785156 156.597656 87.648438 C 156.230469 85.949219 156.335938 84.757812 158.757812 85.1875 C 163.113281 85.96875 167.515625 86.492188 171.898438 87.097656 C 173.253906 87.28125 173.402344 88.148438 173.367188 89.289062 C 173.304688 91.210938 173.347656 93.140625 173.347656 95.066406 Z M 163.769531 143.480469 C 163.097656 143.261719 161.910156 143.65625 162.105469 142.339844 C 162.320312 140.914062 163.535156 140.835938 164.660156 140.785156 C 165.351562 140.753906 165.859375 140.972656 165.660156 141.882812 C 165.289062 142.671875 165.320312 143.988281 163.769531 143.480469 Z M 164.390625 146.199219 C 163.789062 147.878906 163.207031 149.566406 162.617188 151.25 C 162.414062 151.234375 162.210938 151.222656 162.007812 151.210938 C 162.007812 149.402344 162.007812 147.59375 162.007812 145.789062 C 162.007812 144.84375 162.4375 144.558594 163.347656 144.824219 C 164.070312 145.035156 164.753906 145.175781 164.390625 146.199219 Z M 121.734375 139.621094 C 119.582031 139.683594 119.914062 138.144531 119.992188 136.886719 C 120.511719 128.78125 120.621094 120.660156 121.175781 112.539062 C 121.175781 104.421875 121.222656 96.300781 121.140625 88.183594 C 121.121094 86.378906 121.601562 85.820312 123.492188 85.691406 C 131.167969 85.171875 138.886719 85.222656 146.519531 84.0625 C 146.914062 84.003906 147.328125 84.042969 147.734375 84.035156 C 154.003906 83.945312 154.429688 84.183594 155.714844 90.242188 C 157.742188 99.824219 158.917969 109.523438 159.835938 119.28125 C 160.398438 125.25 159.976562 131.257812 160.902344 137.183594 C 161.265625 139.515625 160.132812 140.023438 158.070312 140.355469 C 145.902344 142.324219 133.855469 139.273438 121.734375 139.621094 Z M 137.792969 141.542969 C 132.453125 142.316406 127.136719 143 121.769531 142.738281 C 121.039062 142.699219 119.976562 143.03125 120.015625 141.710938 C 120.046875 140.667969 120.910156 140.75 121.585938 140.78125 C 126.988281 141.019531 132.390625 141.285156 137.792969 141.542969 Z M 118.910156 137.105469 C 118.949219 138.984375 118.222656 139.585938 116.382812 139.488281 C 113.449219 139.332031 110.492188 139.269531 107.5625 139.433594 C 105.457031 139.546875 104.738281 138.945312 104.769531 136.75 C 104.886719 128.625 106 96.125 105.921875 87.996094 C 105.90625 86.246094 106.480469 85.699219 108.191406 85.773438 C 111.027344 85.898438 113.882812 85.984375 116.707031 85.777344 C 119.21875 85.59375 120.066406 86.347656 119.949219 88.957031 C 119.367188 101.953125 119.804688 114.972656 119.042969 127.964844 C 118.867188 131.003906 118.851562 134.0625 118.910156 137.105469 Z M 100.9375 139.65625 C 92.027344 139.941406 83.121094 140.429688 74.21875 140.945312 C 71.101562 141.128906 69.953125 139.828125 69.3125 136.765625 C 66.128906 121.570312 64.746094 106.183594 63.964844 90.722656 C 63.671875 84.949219 63.777344 85.320312 69.445312 84.527344 C 75.265625 83.714844 80.960938 84.410156 86.707031 84.714844 C 91.511719 84.96875 97.328125 85.449219 102.3125 85.691406 C 103.101562 85.726562 103.71875 86.378906 103.71875 87.171875 L 103.71875 136.558594 C 103.746094 138.695312 103.320312 139.578125 100.9375 139.65625 Z M 101.929688 142.730469 C 96.835938 142.515625 91.746094 142.257812 86.65625 142.011719 C 86.65625 141.832031 86.65625 141.652344 86.65625 141.472656 C 91.765625 141.238281 96.875 140.988281 101.984375 140.78125 C 102.628906 140.757812 103.511719 140.574219 103.59375 141.632812 C 103.691406 142.921875 102.679688 142.761719 101.929688 142.730469 Z M 51.238281 141.554688 C 51.066406 140.546875 50.816406 139.195312 52.746094 139.496094 C 56.109375 140.027344 59.488281 140.472656 62.863281 140.957031 C 64.339844 141.167969 65.816406 141.390625 67.292969 141.609375 C 67.324219 141.792969 67.355469 141.976562 67.390625 142.164062 C 62.402344 143.117188 57.441406 144.332031 52.414062 144.898438 C 50.453125 145.121094 51.4375 142.75 51.238281 141.554688 Z M 65.558594 139.949219 C 61.542969 139.035156 57.425781 138.507812 53.328125 138.054688 C 51.324219 137.832031 51.117188 136.878906 51.324219 135.246094 C 51.550781 133.433594 51.609375 131.601562 51.738281 129.777344 C 52.1875 115.648438 54.394531 101.777344 57.796875 88.070312 C 58.332031 85.902344 59.632812 85.65625 61.308594 85.757812 C 63.234375 85.878906 62.566406 87.566406 62.671875 88.566406 C 63.21875 93.808594 62.910156 99.082031 63.351562 104.359375 C 64.28125 115.449219 65.765625 126.429688 68.0625 137.300781 C 68.589844 139.792969 68.441406 140.609375 65.558594 139.949219 Z M 61.667969 80.460938 C 60.511719 80.324219 60.082031 79.738281 60.484375 78.605469 C 61.078125 76.953125 61.667969 75.296875 62.261719 73.640625 C 62.460938 73.695312 62.65625 73.746094 62.855469 73.800781 C 62.855469 75.5 62.867188 77.199219 62.851562 78.898438 C 62.84375 79.691406 62.957031 80.613281 61.667969 80.460938 Z M 60.90625 81.585938 C 61.78125 81.675781 62.523438 81.832031 62.488281 82.933594 C 62.445312 84.316406 61.433594 84.191406 60.527344 84.191406 C 59.84375 84.191406 58.957031 84.359375 59.152344 83.203125 C 59.3125 82.265625 59.671875 81.457031 60.90625 81.585938 Z M 103.03125 84.261719 C 97.585938 84.382812 92.175781 83.839844 86.769531 83.113281 C 92.230469 83.070312 97.636719 82.425781 103.066406 82.226562 C 103.804688 82.199219 104.851562 81.96875 104.824219 83.253906 C 104.800781 84.511719 103.777344 84.246094 103.03125 84.261719 Z M 117.289062 142.746094 C 115.367188 142.75 113.449219 142.746094 111.527344 142.746094 C 111.527344 142.742188 111.527344 142.738281 111.527344 142.734375 C 109.710938 142.734375 107.890625 142.746094 106.074219 142.726562 C 105.441406 142.71875 104.84375 142.574219 104.847656 141.746094 C 104.851562 140.921875 105.441406 140.761719 106.074219 140.757812 C 109.8125 140.746094 113.550781 140.746094 117.289062 140.761719 C 117.921875 140.761719 118.542969 140.894531 118.511719 141.726562 C 118.488281 142.484375 117.964844 142.742188 117.289062 142.746094 Z M 118.355469 146.5 C 117.808594 156.117188 117.351562 165.742188 116.800781 175.363281 C 116.574219 179.308594 116.113281 183.242188 115.90625 187.191406 C 115.832031 188.59375 115.457031 189.242188 113.980469 189.121094 C 112.871094 189.03125 111.75 189.105469 110.636719 189.105469 C 105.515625 189.105469 105.453125 189.105469 105.386719 183.832031 C 105.316406 177.945312 104.828125 153.386719 104.734375 146.992188 C 104.707031 145.117188 105.09375 144.21875 107.214844 144.34375 C 110.246094 144.519531 113.296875 144.472656 116.335938 144.375 C 117.964844 144.324219 118.445312 144.933594 118.355469 146.5 Z M 107.53125 82.222656 C 109.453125 82.214844 111.375 82.21875 113.292969 82.21875 C 113.292969 82.214844 113.292969 82.210938 113.292969 82.207031 C 114.910156 82.207031 116.527344 82.179688 118.144531 82.21875 C 118.894531 82.238281 119.898438 82.011719 119.863281 83.300781 C 119.839844 84.265625 119.105469 84.371094 118.375 84.425781 C 114.738281 84.691406 111.101562 84.621094 107.46875 84.351562 C 106.867188 84.308594 106.226562 84.230469 106.171875 83.410156 C 106.113281 82.4375 106.753906 82.226562 107.53125 82.222656 Z M 121.269531 83.125 C 121.371094 82.0625 122.242188 82.199219 122.886719 82.292969 C 127.480469 82.949219 132.121094 82.761719 136.710938 83.140625 C 132.132812 84.523438 127.480469 84.070312 122.878906 84.300781 C 122.082031 84.34375 121.152344 84.375 121.269531 83.125 Z M 173.347656 85.378906 C 173.183594 86.414062 172.222656 85.667969 171.589844 85.574219 C 166.535156 84.824219 161.480469 84.085938 155.6875 83.234375 C 161.433594 82.183594 166.457031 81.253906 171.484375 80.363281 C 172.125 80.25 173.121094 79.890625 173.265625 80.871094 C 173.480469 82.355469 173.582031 83.914062 173.347656 85.378906 Z M 153.546875 79.808594 C 153.972656 81.472656 153.375 82.34375 151.617188 82.332031 C 150.398438 82.324219 149.179688 82.332031 147.964844 82.332031 C 139.671875 81.957031 131.414062 80.910156 123.09375 81.15625 C 121.644531 81.199219 121.144531 80.667969 121.167969 79.222656 C 121.394531 65.507812 120.785156 51.804688 120.472656 38.09375 C 120.433594 36.335938 121.058594 35.890625 122.730469 35.804688 C 126.871094 35.59375 131.011719 35.242188 135.128906 34.753906 C 136.507812 34.589844 137.140625 35.019531 137.710938 36.144531 C 144.789062 50.046875 149.695312 64.734375 153.546875 79.808594 Z M 121.972656 34.742188 C 121.085938 34.871094 120.339844 34.683594 120.296875 33.542969 C 120.25 32.34375 121.0625 32.265625 121.917969 32.308594 C 126.21875 32.523438 130.523438 32.757812 134.824219 32.988281 C 130.640625 34.539062 126.238281 34.113281 121.972656 34.742188 Z M 133.503906 31.707031 C 129.359375 31.53125 125.214844 31.300781 121.070312 31.09375 C 120.328125 31.054688 120.03125 30.617188 119.984375 29.914062 C 119.566406 23.675781 119.140625 17.4375 118.675781 10.535156 C 125.503906 16.464844 130.226562 23.09375 134.308594 30.238281 C 134.957031 31.375 134.589844 31.75 133.503906 31.707031 Z M 117.617188 34.777344 C 116.308594 34.777344 115 34.777344 113.691406 34.777344 C 113.691406 34.785156 113.691406 34.792969 113.691406 34.796875 C 112.683594 34.796875 111.675781 34.828125 110.667969 34.789062 C 110.003906 34.757812 109.128906 34.878906 109.257812 33.757812 C 109.339844 33.054688 109.441406 32.246094 110.386719 32.238281 C 112.902344 32.210938 115.417969 32.234375 117.9375 32.277344 C 118.710938 32.289062 118.855469 32.875 118.894531 33.539062 C 118.953125 34.480469 118.445312 34.777344 117.617188 34.777344 Z M 111.488281 36.089844 C 111.785156 36.140625 112.09375 36.121094 112.398438 36.125 C 119.234375 36.183594 119.296875 36.179688 119.433594 43.253906 C 119.535156 48.636719 119.90625 72.207031 120.023438 78.605469 C 120.0625 80.769531 119.144531 81.132812 117.277344 81.019531 C 114.347656 80.84375 111.398438 80.792969 108.464844 80.875 C 106.808594 80.925781 106.351562 80.316406 106.429688 78.753906 C 106.765625 72.0625 106.929688 65.359375 107.339844 58.671875 C 107.757812 51.882812 108.464844 45.117188 108.875 38.328125 C 108.996094 36.398438 109.730469 35.8125 111.488281 36.089844 Z M 105.828125 34.761719 C 100.425781 34.402344 95.023438 33.988281 89.621094 33.589844 C 89.652344 33.359375 89.6875 33.125 89.722656 32.894531 C 95.058594 32.660156 100.394531 32.398438 105.734375 32.21875 C 106.589844 32.191406 107.898438 31.691406 107.9375 33.417969 C 107.972656 35.074219 106.773438 34.824219 105.828125 34.761719 Z M 105.527344 35.90625 C 106.921875 35.902344 107.734375 36.09375 107.605469 37.941406 C 106.671875 51.507812 105.84375 65.082031 105.035156 78.65625 C 104.945312 80.171875 104.726562 81.148438 102.863281 81.113281 C 94.144531 80.953125 85.453125 81.597656 78.222656 82.316406 C 72.996094 82.488281 69.351562 81.445312 65.621094 81.128906 C 63.457031 80.949219 64.273438 79.433594 64.179688 78.195312 C 63.097656 63.925781 70.960938 52.761719 76.851562 40.859375 C 79.546875 35.410156 82.710938 32.734375 89.210938 34.496094 C 94.453125 35.914062 100.042969 35.917969 105.527344 35.90625 Z M 66.074219 59.035156 C 65.382812 55.585938 66.539062 52.273438 67.089844 48.972656 C 67.765625 44.921875 69.0625 40.980469 69.949219 36.960938 C 70.3125 35.308594 71.015625 34.539062 72.773438 34.5625 C 74.871094 34.585938 76.925781 33.640625 79.558594 34.242188 C 74.378906 42.402344 70.070312 50.589844 66.074219 59.035156 Z M 71.234375 28.597656 C 70.792969 29.585938 69.921875 29.414062 69.15625 29.105469 C 67.308594 28.359375 65.3125 27.933594 63.554688 26.535156 C 67.105469 23.753906 70.707031 21.246094 75.46875 18.878906 C 73.824219 22.660156 72.550781 25.636719 71.234375 28.597656 Z M 63.578125 28.175781 C 65.027344 28.875 66.5625 29.40625 68.035156 30.0625 C 68.882812 30.4375 70.285156 30.308594 70.09375 31.800781 C 69.914062 33.183594 68.910156 33.773438 67.585938 33.988281 C 63.597656 34.636719 59.625 35.363281 55.636719 35.980469 C 54.574219 36.144531 53.59375 36.988281 51.910156 36.179688 C 55.007812 33.484375 57.878906 30.976562 60.769531 28.488281 C 61.609375 27.765625 62.515625 27.660156 63.578125 28.175781 Z M 67.957031 35.253906 C 68.222656 35.226562 68.511719 35.414062 68.890625 35.53125 C 66.023438 45.363281 64.492188 55.375 63.304688 65.496094 C 62.773438 70.019531 60.582031 74.347656 59.144531 78.765625 C 58.824219 79.75 58.195312 79.820312 57.242188 79.625 C 47.515625 77.632812 37.933594 75.222656 28.914062 70.90625 C 27.269531 70.121094 26.96875 69.511719 27.886719 67.824219 C 33.480469 57.539062 40.398438 48.242188 48.375 39.710938 C 48.847656 39.207031 49.441406 38.628906 50.070312 38.488281 C 55.984375 37.152344 61.914062 35.886719 67.957031 35.253906 Z M 28.335938 64.042969 C 27.734375 65.089844 27.1875 66.171875 26.542969 67.195312 C 26.128906 67.847656 26.148438 69.15625 24.730469 68.550781 C 23.554688 68.042969 23.378906 67.175781 23.714844 66.070312 C 24.414062 63.75 25.066406 61.417969 25.816406 59.113281 C 26.347656 57.480469 27.171875 55.933594 27.578125 54.277344 C 29.9375 44.671875 36.671875 40.660156 46.300781 39.839844 C 39.199219 47.316406 33.316406 55.347656 28.335938 64.042969 Z M 23.859375 69.609375 C 24.464844 69.863281 25.148438 70.109375 24.585938 71.09375 C 23.777344 72.511719 23.371094 74.152344 22.140625 75.511719 C 21.441406 73.609375 22.535156 72.074219 22.625 70.433594 C 22.664062 69.789062 23.121094 69.289062 23.859375 69.609375 Z M 20.039062 98.136719 C 20.027344 96.914062 19.890625 95.738281 21.410156 95.152344 C 32.335938 90.945312 43.710938 88.511719 55.25 86.492188 C 56.660156 86.320312 56.925781 86.976562 56.5625 88.292969 C 53.652344 98.855469 51.988281 109.648438 50.917969 120.53125 C 50.441406 125.371094 50.292969 130.246094 50.125 135.113281 C 50.066406 136.769531 49.761719 137.527344 47.863281 137.121094 C 40.882812 135.628906 33.953125 133.957031 27.144531 131.789062 C 25.671875 131.320312 24.738281 130.632812 24.34375 129.039062 C 21.832031 118.886719 20.121094 108.625 20.039062 98.136719 Z M 48.257812 138.507812 C 50.636719 138.886719 50.121094 140.773438 50.035156 142.28125 C 49.957031 143.6875 50.859375 145.386719 48.257812 146.011719 C 43.460938 147.164062 38.769531 148.765625 34.070312 150.300781 C 32.9375 150.671875 32.171875 150.855469 31.621094 149.585938 C 29.3125 144.238281 27.160156 138.839844 25.554688 132.816406 C 33.269531 135.148438 40.652344 137.296875 48.257812 138.507812 Z M 38.535156 150.003906 C 41.417969 149.09375 44.367188 148.382812 47.246094 147.46875 C 49.253906 146.832031 50.167969 146.929688 50.328125 149.535156 C 50.976562 160.253906 52.527344 170.847656 55.605469 181.167969 C 56.230469 183.269531 56.914062 185.351562 57.570312 187.441406 C 48.269531 178.625 41.140625 168.492188 35.402344 157.375 C 32.585938 151.921875 32.640625 151.859375 38.535156 150.003906 Z M 71.261719 145.5625 C 70.832031 143.886719 71.015625 143.242188 72.976562 142.851562 C 77.085938 142.035156 81.089844 142.992188 85.058594 143.351562 C 90.511719 143.847656 95.984375 143.535156 101.425781 144.21875 C 103.335938 144.460938 103.726562 145.046875 103.707031 146.785156 C 103.625 153.480469 104.230469 180.058594 104.324219 186.652344 C 104.347656 188.378906 104.074219 189.160156 102.085938 189.242188 C 98.25 189.40625 94.421875 189.851562 90.605469 190.320312 C 88.628906 190.5625 87.535156 189.953125 86.605469 188.097656 C 79.804688 174.523438 75.042969 160.226562 71.261719 145.5625 Z M 102.9375 190.523438 C 103.785156 190.472656 104.308594 190.703125 104.371094 191.628906 C 104.4375 192.660156 103.753906 192.792969 102.992188 192.757812 C 98.5625 192.558594 94.136719 192.34375 89.710938 192.132812 C 94.082031 190.863281 98.519531 190.796875 102.9375 190.523438 Z M 103.058594 193.976562 C 104.117188 193.976562 104.757812 194.445312 104.835938 195.585938 C 105.238281 201.542969 105.65625 207.496094 106.054688 213.453125 C 106.0625 213.59375 105.867188 213.75 105.535156 214.234375 C 98.957031 208.382812 94.011719 201.421875 90.011719 193.972656 C 94.433594 193.972656 98.746094 193.96875 103.058594 193.976562 Z M 107.09375 190.324219 C 109.5 190.273438 111.90625 190.253906 114.308594 190.242188 C 115.011719 190.242188 115.449219 190.574219 115.414062 191.335938 C 115.378906 192.066406 115.261719 192.789062 114.3125 192.8125 C 113.109375 192.84375 111.90625 192.820312 110.703125 192.820312 C 110.703125 192.8125 110.703125 192.800781 110.703125 192.792969 C 109.601562 192.792969 108.5 192.800781 107.394531 192.789062 C 106.667969 192.785156 105.964844 192.734375 105.933594 191.734375 C 105.910156 190.90625 106.222656 190.339844 107.09375 190.324219 Z M 116.289062 195.988281 C 116.394531 194.667969 116.941406 194.25 118.15625 194.203125 C 125.820312 193.898438 133.484375 193.558594 141.976562 193.195312 C 134.285156 203.605469 126.105469 212.25 115.140625 217.886719 C 114.640625 218.144531 114.050781 218.707031 113.546875 218.128906 C 113.308594 217.855469 113.429688 217.179688 113.523438 216.710938 C 114.859375 209.855469 115.71875 202.941406 116.289062 195.988281 Z M 116.894531 191.625 C 116.953125 190.273438 117.882812 190.277344 118.820312 190.351562 C 122.75 190.644531 126.675781 190.96875 130.601562 191.277344 C 131.796875 191.371094 132.992188 191.441406 134.1875 191.523438 C 129.007812 192.9375 123.761719 192.757812 118.527344 192.800781 C 117.730469 192.808594 116.839844 192.890625 116.894531 191.625 Z M 140.929688 191.308594 C 133.953125 189.996094 126.878906 189.390625 119.792969 189.195312 C 117.171875 189.125 117.046875 188.3125 117.226562 186.019531 C 118.074219 175.09375 118.671875 164.152344 119.347656 153.214844 C 119.417969 152.101562 119.375 150.980469 119.429688 149.863281 C 119.679688 144.558594 119.699219 144.730469 124.828125 144.269531 C 132.488281 143.582031 140.183594 143.59375 147.851562 142.800781 C 151.570312 142.417969 155.457031 143.589844 159.261719 144.101562 C 160.433594 144.257812 160.550781 145.097656 160.5 146.136719 C 160.410156 147.855469 160.476562 149.585938 160.476562 151.3125 C 161.015625 156.03125 159.550781 160.285156 157.691406 164.535156 C 153.875 173.277344 149.609375 181.765625 144.378906 189.757812 C 143.5 191.101562 142.671875 191.636719 140.929688 191.308594 Z M 158.773438 165.929688 C 159.40625 169.40625 158.238281 172.726562 157.710938 176.050781 C 157.097656 179.910156 155.761719 183.644531 155.007812 187.488281 C 154.589844 189.644531 153.582031 190.605469 151.457031 190.722656 C 149.445312 190.832031 147.441406 191.113281 144.878906 191.375 C 150.3125 182.984375 154.691406 174.578125 158.773438 165.929688 Z M 156.230469 196.25 C 157.832031 197.019531 160.496094 197.113281 160.785156 198.609375 C 161.035156 199.898438 158.453125 200.773438 157.066406 201.722656 C 154.695312 203.347656 152.199219 204.785156 149.753906 206.300781 C 149.640625 206.136719 149.523438 205.96875 149.410156 205.804688 C 150.640625 203.042969 151.988281 200.328125 153.054688 197.507812 C 153.738281 195.707031 154.65625 195.492188 156.230469 196.25 Z M 156.667969 195.085938 C 155.875 194.707031 154.457031 194.878906 154.710938 193.304688 C 154.941406 191.878906 155.820312 191.457031 157.210938 191.242188 C 162.382812 190.441406 167.527344 189.46875 172.683594 188.558594 C 172.796875 188.703125 172.910156 188.851562 173.027344 189 C 169.886719 191.671875 166.734375 194.332031 163.609375 197.027344 C 162.84375 197.6875 162.1875 197.433594 161.40625 197.078125 C 159.84375 196.371094 158.210938 195.824219 156.667969 195.085938 Z M 155.824219 189.992188 C 158.78125 179.554688 160.351562 169.34375 161.566406 159.027344 C 162.066406 154.804688 164.242188 150.792969 165.554688 146.65625 C 166.019531 145.1875 167.054688 145.464844 167.988281 145.652344 C 177.617188 147.570312 187.066406 150.074219 196.003906 154.277344 C 197.609375 155.03125 197.734375 155.835938 196.917969 157.328125 C 191.316406 167.59375 184.488281 176.957031 176.425781 185.417969 C 175.875 185.996094 175.34375 186.53125 174.460938 186.730469 C 168.464844 188.074219 162.457031 189.347656 155.824219 189.992188 Z M 192.777344 166.96875 C 194.640625 163.964844 196.390625 160.890625 198.207031 157.855469 C 198.640625 157.125 198.855469 156 200.164062 156.667969 C 201.152344 157.175781 201.359375 158 201.097656 158.972656 C 199.097656 166.429688 196.382812 173.605469 192.640625 180.375 C 192.273438 181.035156 191.734375 181.472656 191.0625 181.71875 C 187.203125 183.148438 183.332031 184.558594 179.101562 185.171875 C 183.976562 179.273438 188.777344 173.421875 192.777344 166.96875 Z M 200.914062 155.582031 C 200.238281 155.292969 199.710938 154.925781 200.207031 153.996094 C 200.984375 152.539062 201.660156 151.019531 202.714844 148.835938 C 203.1875 151.449219 202.328125 153.027344 202.136719 154.699219 C 202.078125 155.226562 201.738281 155.929688 200.914062 155.582031 Z M 199.132812 152.980469 C 198.601562 154.078125 197.875 153.875 196.921875 153.40625 C 187.964844 148.992188 178.417969 146.445312 168.675781 144.511719 C 167.804688 144.339844 166.457031 144.433594 166.777344 142.8125 C 166.984375 141.746094 166.898438 140.421875 168.363281 140.207031 C 180.722656 138.417969 192.800781 135.488281 204.546875 131.148438 C 205.785156 139.328125 202.445312 146.152344 199.132812 152.980469 Z M 200.875 131 C 191.148438 134.355469 181.148438 136.558594 171.066406 138.4375 C 167.835938 139.042969 167.785156 138.878906 168.585938 135.691406 C 172.308594 120.890625 174.167969 105.832031 174.65625 90.597656 C 174.722656 88.496094 174.898438 87.671875 177.433594 88.199219 C 184.335938 89.628906 191.140625 91.335938 197.851562 93.476562 C 199.304688 93.941406 200.046875 94.703125 200.40625 96.085938 C 202.882812 105.632812 204.277344 115.339844 204.832031 125.816406 C 205.785156 128.679688 203.851562 129.976562 200.875 131 Z M 213.179688 100.777344 C 219.207031 102.988281 223.1875 108.34375 223.082031 113.667969 C 223.027344 116.445312 221.46875 118.363281 219.714844 120.214844 C 217.058594 123.019531 213.871094 125.046875 210.070312 126.898438 C 211.820312 118.042969 213.460938 109.554688 213.179688 100.777344 Z M 208.78125 62.003906 C 216.582031 75.511719 221.242188 89.773438 222.292969 105.234375 C 219.640625 102.976562 217.082031 100.855469 214.199219 99.195312 C 213.050781 98.53125 213.152344 97.589844 213.167969 96.59375 C 213.34375 85.976562 211.355469 75.703125 208.273438 65.601562 C 207.816406 64.101562 207.839844 64.09375 208.78125 62.003906 Z M 211.5 90.027344 C 211.613281 91.847656 211.75 93.667969 211.847656 95.105469 C 212.328125 97.515625 211.570312 97.882812 209.890625 96.875 C 209.804688 96.824219 209.71875 96.757812 209.625 96.734375 C 202.976562 94.957031 198.886719 90.984375 197.765625 83.90625 C 197.332031 81.179688 195.894531 78.570312 194.671875 76.027344 C 193.839844 74.300781 193.925781 73.425781 195.847656 72.625 C 199.207031 71.222656 202.320312 69.304688 205.023438 66.832031 C 206.355469 65.617188 206.808594 65.714844 207.347656 67.523438 C 209.542969 74.882812 211.019531 82.359375 211.5 90.027344 Z M 207.320312 57.050781 C 205.953125 55.066406 204.585938 53.082031 203.222656 51.09375 C 205.738281 52.289062 207.085938 54.292969 207.320312 57.050781 Z M 196.601562 40.234375 C 198.359375 42.4375 200.113281 44.640625 201.871094 46.847656 C 198.4375 45.976562 198.09375 42.648438 195.738281 40.917969 C 196.027344 40.691406 196.316406 40.460938 196.601562 40.234375 Z M 199.992188 49.824219 C 201.972656 53.796875 203.886719 57.789062 205.496094 61.9375 C 206.074219 63.421875 205.910156 64.367188 204.800781 65.40625 C 201.796875 68.210938 198.257812 70.132812 194.605469 71.90625 C 192.808594 72.78125 192.5625 71.296875 192.070312 70.289062 C 187.914062 61.800781 182.96875 53.800781 177.15625 46.351562 C 174.988281 43.574219 172.683594 40.898438 169.964844 37.597656 C 179.257812 39.585938 187.585938 41.890625 195.5 45.566406 C 197.519531 46.503906 198.988281 47.804688 199.992188 49.824219 Z M 192.832031 40.859375 C 193.578125 41.636719 194.269531 42.46875 194.988281 43.273438 C 187.445312 40.667969 179.976562 38.230469 172.277344 36.859375 C 167.65625 36.035156 165.246094 33.480469 163.574219 29.503906 C 163.023438 28.199219 163.113281 27.480469 164.359375 26.816406 C 165.15625 26.390625 166.144531 25.933594 166.539062 25.210938 C 168.847656 20.988281 171.226562 23.238281 173.746094 24.925781 C 180.671875 29.566406 187.046875 34.855469 192.832031 40.859375 Z M 169.480469 17.839844 C 174.71875 19.808594 187.003906 30.433594 190.132812 35.777344 C 189.128906 35.757812 188.714844 35.03125 188.191406 34.566406 C 182.984375 29.90625 177.480469 25.632812 171.480469 22.042969 C 169.742188 21.003906 169.0625 19.769531 169.480469 17.839844 Z M 168.042969 19.382812 C 161.621094 15.488281 153.722656 14.386719 148.265625 8.707031 C 155.589844 10.933594 163.621094 11.828125 168.042969 19.382812 Z M 146.660156 10.007812 C 141.652344 8.859375 136.78125 7.4375 131.855469 6.210938 C 136.992188 6.738281 142.445312 5.949219 146.660156 10.007812 Z M 150.242188 13.210938 C 154.207031 15.011719 156.230469 19.421875 158.582031 23.082031 C 159.410156 24.375 161.371094 26.320312 160.421875 27.113281 C 158.820312 28.445312 157.542969 26.027344 156.308594 25.0625 C 146.886719 17.703125 136.691406 11.78125 125.34375 7.925781 C 124.601562 7.675781 123.882812 7.351562 123.152344 7.0625 C 132.578125 7.65625 141.75 9.351562 150.242188 13.210938 Z M 158.335938 28.398438 C 151.410156 30.539062 145.230469 33.230469 138.246094 31.910156 C 137.089844 31.691406 136.425781 31.140625 135.921875 30.242188 C 131.296875 21.96875 125.851562 14.359375 118.429688 8.320312 C 118.253906 8.175781 118.289062 7.773438 118.136719 7.097656 C 133.203125 10.960938 146.125 18.261719 158.335938 28.398438 Z M 113.492188 6.863281 C 115.066406 7.117188 116.902344 8.140625 117.097656 10.386719 C 117.46875 14.609375 117.914062 18.824219 118.3125 23.042969 C 118.414062 24.148438 118.40625 25.265625 118.527344 26.371094 C 119.050781 31.144531 119.0625 31.144531 114.433594 31.070312 C 109.421875 30.992188 109.421875 30.992188 110.070312 26.003906 C 110.773438 20.601562 111.394531 15.1875 112.269531 9.816406 C 112.433594 8.808594 112.148438 6.648438 113.492188 6.863281 Z M 108.519531 29.132812 C 108.398438 31.003906 107.261719 31.148438 105.816406 31.117188 C 98.320312 30.945312 90.855469 31.625 82.742188 32.164062 C 90.480469 21.265625 99.277344 12.292969 111.613281 6.257812 C 110.136719 14.292969 108.996094 21.671875 108.519531 29.132812 Z M 106.1875 7.324219 C 103.050781 9.699219 100.105469 11.785156 97.320312 14.070312 C 91.792969 18.605469 87.035156 23.902344 82.949219 29.742188 C 81.5 31.8125 80.03125 32.066406 77.835938 31.503906 C 72.015625 30.023438 72.136719 30.136719 74.378906 24.546875 C 76.566406 19.097656 80.054688 15.421875 85.738281 13.375 C 91.980469 11.128906 98.214844 8.917969 104.632812 7.246094 C 105 7.152344 105.421875 7.277344 106.1875 7.324219 Z M 88.570312 7.75 C 92.058594 7.40625 95.476562 6.367188 99.039062 6.804688 C 93.71875 8.992188 88.152344 10.304688 83.222656 13.246094 C 82.878906 13.453125 82.113281 13.410156 81.835938 13.160156 C 81.382812 12.746094 81.871094 12.246094 82.183594 11.886719 C 83.917969 9.90625 85.644531 8.035156 88.570312 7.75 Z M 82.777344 7.457031 C 74.972656 9.6875 67.359375 12.449219 59.894531 15.582031 C 66.699219 10.445312 74.582031 8.5 82.777344 7.457031 Z M 59.273438 17.730469 C 66.347656 14.289062 73.613281 11.40625 81.441406 9.773438 C 79.621094 12.855469 77.941406 15.828125 74.519531 17.511719 C 70.644531 19.414062 67.066406 21.910156 63.597656 24.523438 C 61.632812 26.003906 59.453125 25.097656 57.625 22.179688 C 56.222656 19.941406 57.152344 18.761719 59.273438 17.730469 Z M 55.332031 20.0625 C 56.011719 22.359375 57.296875 24.261719 59.257812 25.628906 C 60.214844 26.296875 60.433594 26.753906 59.398438 27.644531 C 55.800781 30.742188 52.316406 33.96875 48.730469 37.082031 C 47.304688 38.320312 45.339844 38.261719 43.636719 38.828125 C 40.617188 39.828125 37.546875 40.695312 33.78125 41.835938 C 39.640625 32.605469 45.433594 24.429688 55.332031 20.0625 Z M 38.65625 31.878906 C 34.539062 36.796875 33.136719 44.367188 24.652344 45.707031 C 29.027344 40.265625 33.5 35.730469 38.65625 31.878906 Z M 21.0625 50.589844 C 23.554688 48.242188 26.527344 46.511719 30.472656 45.039062 C 27.03125 51.882812 24.496094 58.261719 22.722656 64.914062 C 22.214844 66.8125 21.558594 66.339844 20.503906 65.445312 C 15.480469 61.191406 15.597656 55.738281 21.0625 50.589844 Z M 15.203125 59.433594 C 16.558594 63.058594 18.5625 65.613281 21.1875 67.6875 C 22.074219 68.382812 21.542969 69.433594 21.398438 70.273438 C 19.984375 78.40625 18.605469 86.546875 15.769531 94.347656 C 15.367188 95.453125 14.992188 96.457031 13.722656 97.105469 C 9.410156 99.300781 5.332031 101.878906 1.742188 106.453125 C 2.734375 89.40625 6.933594 74.210938 15.203125 59.433594 Z M 1.894531 110.6875 C 3.117188 103.957031 9.113281 101.578125 14.546875 98.152344 C 13.734375 102.984375 12.871094 107.199219 12.347656 111.453125 C 11.832031 115.644531 11.65625 119.875 11.28125 124.691406 C 5.78125 121.140625 0.609375 117.757812 1.894531 110.6875 Z M 16.207031 162.28125 C 15.210938 162.730469 15.105469 161.605469 14.816406 161.082031 C 7.726562 148.140625 3.328125 134.375 2.046875 118.769531 C 4.726562 121.886719 7.191406 123.953125 9.996094 125.574219 C 11.136719 126.234375 11.402344 127.210938 11.421875 128.375 C 11.609375 139.21875 13.363281 149.808594 16.605469 160.15625 C 16.855469 160.953125 17.128906 161.859375 16.207031 162.28125 Z M 17.511719 157.773438 C 15.335938 150.523438 13.734375 143.179688 13.40625 135.613281 C 13.292969 132.988281 12.300781 130.425781 12.945312 127.574219 C 16.320312 128.988281 19.449219 130.335938 22.609375 131.605469 C 23.671875 132.03125 24.175781 132.792969 24.472656 133.816406 C 26.027344 139.160156 27.933594 144.382812 30.226562 149.449219 C 30.941406 151.027344 30.679688 151.769531 29.136719 152.433594 C 25.6875 153.925781 22.457031 155.808594 19.648438 158.347656 C 18.59375 159.300781 18.070312 159.640625 17.511719 157.773438 Z M 25.367188 176.296875 C 22.878906 172.035156 21.035156 167.480469 19.199219 162.914062 C 18.691406 161.65625 18.941406 160.800781 19.824219 159.933594 C 22.828125 156.96875 26.476562 155.019531 30.242188 153.246094 C 32.109375 152.367188 32.261719 154.015625 32.734375 154.972656 C 37.199219 163.988281 42.5 172.46875 48.796875 180.316406 C 50.558594 182.507812 52.386719 184.648438 54.789062 187.539062 C 44.78125 185.417969 35.886719 182.9375 27.539062 178.722656 C 26.441406 178.171875 25.917969 177.238281 25.367188 176.296875 Z M 30.113281 181.832031 C 36.140625 183.839844 42.097656 185.953125 48.273438 187.355469 C 49.648438 187.671875 51.003906 188.183594 52.394531 188.296875 C 57.203125 188.6875 59.644531 191.707031 61.269531 195.84375 C 61.679688 196.882812 61.785156 197.828125 60.734375 198.074219 C 58.027344 198.714844 57.167969 203.710938 54.238281 202.066406 C 45.019531 196.898438 37.054688 190.011719 30.113281 181.832031 Z M 55.234375 207.617188 C 46.855469 202.660156 39.992188 196.316406 33.804688 188.816406 C 34.886719 188.613281 35.230469 189.339844 35.667969 189.742188 C 41.105469 194.757812 46.921875 199.273438 53.253906 203.09375 C 54.964844 204.125 55.589844 205.402344 55.234375 207.617188 Z M 56.558594 204.882812 C 63.101562 209.734375 70.957031 210.699219 76.695312 216.097656 C 70.59375 216.75 57.84375 210.023438 56.558594 204.882812 Z M 77.222656 214.703125 C 82.597656 216.109375 87.304688 217.339844 92.011719 218.574219 C 87.046875 218.359375 81.84375 219.066406 77.222656 214.703125 Z M 79.046875 213.808594 C 71.074219 211.695312 68.242188 204.894531 64.324219 198.976562 C 64.09375 198.628906 63.9375 198.230469 64.246094 197.871094 C 64.640625 197.414062 65.136719 197.476562 65.613281 197.757812 C 65.871094 197.914062 66.117188 198.101562 66.351562 198.296875 C 76.675781 206.980469 88.203125 213.550781 100.945312 218.148438 C 93.425781 217.734375 86.265625 215.722656 79.046875 213.808594 Z M 97.78125 215.3125 C 87.027344 211.386719 77.351562 205.585938 68.4375 198.433594 C 66.660156 197.007812 66.949219 196.375 68.894531 195.839844 C 74.519531 194.296875 80.046875 192.140625 86.085938 193.179688 C 87.003906 193.339844 87.886719 193.296875 88.410156 194.253906 C 93.105469 202.859375 98.996094 210.527344 106.347656 217.042969 C 106.460938 217.140625 106.417969 217.414062 106.476562 217.789062 C 103.367188 217.5625 100.589844 216.335938 97.78125 215.3125 Z M 111.203125 218.203125 C 109.808594 218.039062 108.125 217.179688 107.851562 215.589844 C 106.71875 208.996094 106.46875 202.304688 105.964844 195.640625 C 105.871094 194.394531 106.589844 194.09375 107.667969 194.140625 C 108.679688 194.183594 109.691406 194.148438 110.707031 194.148438 C 115.117188 194.398438 115.121094 194.398438 114.710938 199.015625 C 114.210938 204.660156 113.539062 210.28125 112.347656 215.824219 C 112.160156 216.695312 112.613281 218.367188 111.203125 218.203125 Z M 113.433594 223.804688 C 112.890625 223.8125 111.867188 224.269531 111.957031 223 C 112.03125 221.964844 112.65625 221.636719 113.617188 221.816406 C 114.6875 222.015625 115.71875 222.304688 116.890625 223.222656 C 115.605469 224.03125 114.484375 223.789062 113.433594 223.804688 Z M 142.765625 194.25 C 143.664062 193.003906 144.636719 192.53125 146.023438 193.476562 C 146.261719 193.640625 146.59375 193.671875 146.890625 193.738281 C 152.738281 195.128906 152.621094 195.078125 150.386719 200.53125 C 148.265625 205.703125 145.164062 209.527344 139.644531 211.53125 C 132.953125 213.960938 126.386719 216.675781 119.242188 217.535156 C 128.695312 211.257812 136.246094 203.28125 142.765625 194.25 Z M 124.019531 218.824219 C 130.507812 216.609375 136.96875 214.316406 143.304688 211.679688 C 138.851562 219.695312 130.796875 217.433594 124.019531 218.824219 Z M 142.804688 217.503906 C 150.09375 215.28125 157.265625 212.726562 164.332031 209.867188 C 157.949219 214.671875 150.539062 216.554688 142.804688 217.503906 Z M 165.722656 207.3125 C 158.382812 210.90625 150.832031 213.886719 142.597656 215.878906 C 145.289062 211.332031 148.589844 208.160156 152.984375 205.960938 C 155.933594 204.488281 158.542969 202.335938 161.300781 200.476562 C 163.1875 199.203125 165.53125 200.242188 167.175781 203.039062 C 168.367188 205.066406 167.839844 206.277344 165.722656 207.3125 Z M 176.070312 201.222656 C 175.148438 201.847656 174.160156 202.378906 173.277344 203.046875 C 171.027344 204.75 169.195312 205.527344 167.765625 201.988281 C 167.214844 200.621094 165.574219 199.695312 164.511719 198.644531 C 171.523438 190.835938 179.523438 184.875 190.148438 183.941406 C 188.910156 187.917969 180.71875 198.09375 176.070312 201.222656 Z M 185.933594 193.292969 C 190.195312 188.390625 191.679688 180.773438 199.449219 179.511719 C 198.457031 182.148438 190.6875 190.351562 185.933594 193.292969 Z M 206.433594 170.949219 C 203.769531 175.5 199.527344 177.777344 194.886719 179.675781 C 197.789062 173.160156 200.339844 166.675781 202.132812 159.917969 C 202.464844 158.667969 202.886719 158.765625 203.773438 159.328125 C 207.894531 161.957031 208.882812 166.757812 206.433594 170.949219 Z M 204.148438 157.992188 C 203.222656 157.257812 203.101562 156.5625 203.28125 155.40625 C 204.613281 146.945312 206.308594 138.574219 209.074219 130.453125 C 209.390625 129.527344 209.714844 128.667969 210.785156 128.15625 C 215.269531 126.015625 219.3125 123.230469 223.128906 118.671875 C 221.929688 135.84375 217.796875 151.144531 209.4375 165.953125 C 208.378906 162.25 206.542969 159.894531 204.148438 157.992188 Z M 204.148438 157.992188 " fill-opacity="1" fill-rule="nonzero"/></g></svg>